<?xml version="1.0" encoding="UTF-8"?>
<svg width="136px" height="40px" viewBox="0 0 136 40" version="1.1" xmlns="http://www.w3.org/2000/svg" xmlns:xlink="http://www.w3.org/1999/xlink">
    <!-- Generator: Sketch 40.3 (33839) - http://www.bohemiancoding.com/sketch -->
    <title>ps</title>
    <desc>Created with Sketch.</desc>
    <defs>
        <linearGradient x1="91.4846154%" y1="4.8388%" x2="-37.6107692%" y2="71.9684%" id="linearGradient-1">
            <stop stop-color="#00A0FF" offset="0%"></stop>
            <stop stop-color="#00A1FF" offset="0.657445%"></stop>
            <stop stop-color="#00BEFF" offset="26.01%"></stop>
            <stop stop-color="#00D2FF" offset="51.22%"></stop>
            <stop stop-color="#00DFFF" offset="76.04%"></stop>
            <stop stop-color="#00E3FF" offset="100%"></stop>
        </linearGradient>
        <linearGradient x1="107.662069%" y1="49.4282353%" x2="-130.731034%" y2="49.4282353%" id="linearGradient-2">
            <stop stop-color="#FFE000" offset="0%"></stop>
            <stop stop-color="#FFBD00" offset="40.87%"></stop>
            <stop stop-color="#FFA500" offset="77.54%"></stop>
            <stop stop-color="#FF9C00" offset="100%"></stop>
        </linearGradient>
        <linearGradient x1="86.348503%" y1="17.8150459%" x2="-49.9281437%" y2="194.392791%" id="linearGradient-3">
            <stop stop-color="#FF3A44" offset="0%"></stop>
            <stop stop-color="#C31162" offset="100%"></stop>
        </linearGradient>
        <linearGradient x1="-18.6191617%" y1="-54.5266535%" x2="42.2341317%" y2="24.6901019%" id="linearGradient-4">
            <stop stop-color="#32A071" offset="0%"></stop>
            <stop stop-color="#2DA771" offset="6.85%"></stop>
            <stop stop-color="#15CF74" offset="47.62%"></stop>
            <stop stop-color="#06E775" offset="80.09%"></stop>
            <stop stop-color="#00F076" offset="100%"></stop>
        </linearGradient>
    </defs>
    <g id="Page-1" stroke="none" stroke-width="1" fill="none" fill-rule="evenodd">
        <g id="ps">
            <g id="artwork">
                <g id="Group">
                    <path d="M130.3,40 L5.3,40 C2.5,40 0.3,37.8 0.3,35 L0.3,5 C0.3,2.2 2.5,0 5.3,0 L130.3,0 C133.1,0 135.3,2.2 135.3,5 L135.3,35 C135.3,37.7 133,40 130.3,40 L130.3,40 Z" id="Shape" fill="#000000"></path>
                    <path d="M130.3,0.8 C132.6,0.8 134.5,2.7 134.5,5 L134.5,35 C134.5,37.3 132.6,39.2 130.3,39.2 L5.3,39.2 C3,39.2 1.1,37.3 1.1,35 L1.1,5 C1.1,2.7 3,0.8 5.3,0.8 L130.3,0.8 L130.3,0.8 Z M130.3,0 L5.3,0 C2.5,0 0.3,2.2 0.3,5 L0.3,35 C0.3,37.8 2.5,40 5.3,40 L130.3,40 C133.1,40 135.3,37.8 135.3,35 L135.3,5 C135.3,2.3 133,0 130.3,0 L130.3,0 L130.3,0 Z" id="Shape" fill="#000000"></path>
                    <g transform="translate(41.000000, 6.000000)" id="Shape" stroke="#FFFFFF" stroke-width="0.2" fill="#FFFFFF">
                        <path d="M6.7,4.2 C6.7,5 6.5,5.7 6,6.2 C5.4,6.8 4.7,7.1 3.8,7.1 C2.9,7.1 2.2,6.8 1.6,6.2 C1,5.6 0.7,4.9 0.7,4 C0.7,3.1 1,2.4 1.6,1.8 C2.2,1.2 2.9,0.9 3.8,0.9 C4.2,0.9 4.6,1 5,1.2 C5.4,1.4 5.7,1.6 5.9,1.9 L5.4,2.4 C5,1.9 4.5,1.7 3.8,1.7 C3.2,1.7 2.6,1.9 2.2,2.4 C1.7,2.8 1.5,3.4 1.5,4.1 C1.5,4.8 1.7,5.4 2.2,5.8 C2.7,6.2 3.2,6.5 3.8,6.5 C4.5,6.5 5,6.3 5.5,5.8 C5.8,5.5 6,5.1 6,4.6 L3.8,4.6 L3.8,3.9 L6.7,3.9 C6.7,3.9 6.7,4.1 6.7,4.2 L6.7,4.2 Z"></path>
                        <polygon points="11.3 1.7 8.6 1.7 8.6 3.6 11.1 3.6 11.1 4.3 8.6 4.3 8.6 6.2 11.3 6.2 11.3 7 7.8 7 7.8 1 11.3 1"></polygon>
                        <polygon points="14.6 7 13.8 7 13.8 1.7 12.1 1.7 12.1 1 16.2 1 16.2 1.7 14.5 1.7 14.5 7"></polygon>
                        <polygon points="19.2 7 19.2 1 20 1 20 7"></polygon>
                        <polygon points="23.4 7 22.6 7 22.6 1.7 21 1.7 21 1 25.1 1 25.1 1.7 23.4 1.7 23.4 7"></polygon>
                        <path d="M32.9,6.2 C32.3,6.8 31.6,7.1 30.7,7.1 C29.8,7.1 29.1,6.8 28.5,6.2 C27.9,5.6 27.6,4.9 27.6,4 C27.6,3.1 27.9,2.4 28.5,1.8 C29.1,1.2 29.8,0.9 30.7,0.9 C31.6,0.9 32.3,1.2 32.9,1.8 C33.5,2.4 33.8,3.1 33.8,4 C33.8,4.9 33.5,5.6 32.9,6.2 L32.9,6.2 Z M29.1,5.7 C29.5,6.1 30.1,6.4 30.7,6.4 C31.3,6.4 31.9,6.2 32.3,5.7 C32.7,5.3 33,4.7 33,4 C33,3.3 32.8,2.7 32.3,2.3 C31.9,1.9 31.3,1.6 30.7,1.6 C30.1,1.6 29.5,1.8 29.1,2.3 C28.7,2.7 28.4,3.3 28.4,4 C28.4,4.7 28.6,5.3 29.1,5.7 L29.1,5.7 Z"></path>
                        <polygon points="34.9 7 34.9 1 35.8 1 38.7 5.7 38.7 5.7 38.7 4.5 38.7 1 39.5 1 39.5 7 38.7 7 35.6 2.1 35.6 2.1 35.6 3.3 35.6 7"></polygon>
                    </g>
                    <path d="M68.4,21.8 C66,21.8 64.1,23.6 64.1,26.1 C64.1,28.5 66,30.4 68.4,30.4 C70.8,30.4 72.7,28.6 72.7,26.1 C72.7,23.5 70.8,21.8 68.4,21.8 L68.4,21.8 Z M68.4,28.6 C67.1,28.6 66,27.5 66,26 C66,24.5 67.1,23.4 68.4,23.4 C69.7,23.4 70.8,24.4 70.8,26 C70.8,27.5 69.7,28.6 68.4,28.6 L68.4,28.6 Z M59.1,21.8 C56.7,21.8 54.8,23.6 54.8,26.1 C54.8,28.5 56.7,30.4 59.1,30.4 C61.5,30.4 63.4,28.6 63.4,26.1 C63.4,23.5 61.5,21.8 59.1,21.8 L59.1,21.8 Z M59.1,28.6 C57.8,28.6 56.7,27.5 56.7,26 C56.7,24.5 57.8,23.4 59.1,23.4 C60.4,23.4 61.5,24.4 61.5,26 C61.5,27.5 60.4,28.6 59.1,28.6 L59.1,28.6 Z M48,23.1 L48,24.9 L52.3,24.9 C52.2,25.9 51.8,26.7 51.3,27.2 C50.7,27.8 49.7,28.5 48,28.5 C45.3,28.5 43.3,26.4 43.3,23.7 C43.3,21 45.4,18.9 48,18.9 C49.4,18.9 50.5,19.5 51.3,20.2 L52.6,18.9 C51.5,17.9 50.1,17.1 48.1,17.1 C44.5,17.1 41.4,20.1 41.4,23.7 C41.4,27.3 44.5,30.3 48.1,30.3 C50.1,30.3 51.5,29.7 52.7,28.4 C53.9,27.2 54.3,25.5 54.3,24.2 C54.3,23.8 54.3,23.4 54.2,23.1 L48,23.1 L48,23.1 Z M93.3,24.5 C92.9,23.5 91.9,21.8 89.7,21.8 C87.5,21.8 85.7,23.5 85.7,26.1 C85.7,28.5 87.5,30.4 89.9,30.4 C91.8,30.4 93,29.2 93.4,28.5 L92,27.5 C91.5,28.2 90.9,28.7 89.9,28.7 C88.9,28.7 88.3,28.3 87.8,27.4 L93.5,25 L93.3,24.5 L93.3,24.5 Z M87.5,25.9 C87.5,24.3 88.8,23.4 89.7,23.4 C90.4,23.4 91.1,23.8 91.3,24.3 L87.5,25.9 L87.5,25.9 Z M82.9,30 L84.8,30 L84.8,17.5 L82.9,17.5 L82.9,30 L82.9,30 Z M79.9,22.7 L79.9,22.7 C79.4,22.2 78.6,21.7 77.6,21.7 C75.5,21.7 73.5,23.6 73.5,26 C73.5,28.4 75.4,30.2 77.6,30.2 C78.6,30.2 79.4,29.7 79.8,29.2 L79.9,29.2 L79.9,29.8 C79.9,31.4 79,32.3 77.6,32.3 C76.5,32.3 75.7,31.5 75.5,30.8 L73.9,31.5 C74.4,32.6 75.6,34 77.7,34 C79.9,34 81.7,32.7 81.7,29.6 L81.7,22 L79.9,22 L79.9,22.7 L79.9,22.7 Z M77.7,28.6 C76.4,28.6 75.3,27.5 75.3,26 C75.3,24.5 76.4,23.4 77.7,23.4 C79,23.4 80,24.5 80,26 C80,27.5 79,28.6 77.7,28.6 L77.7,28.6 Z M102.1,17.5 L97.6,17.5 L97.6,30 L99.5,30 L99.5,25.3 L102.1,25.3 C104.2,25.3 106.2,23.8 106.2,21.4 C106.2,19 104.2,17.5 102.1,17.5 L102.1,17.5 Z M102.1,23.5 L99.4,23.5 L99.4,19.2 L102.1,19.2 C103.5,19.2 104.3,20.4 104.3,21.3 C104.3,22.4 103.5,23.5 102.1,23.5 L102.1,23.5 Z M113.7,21.7 C112.3,21.7 110.9,22.3 110.4,23.6 L112.1,24.3 C112.5,23.6 113.1,23.4 113.8,23.4 C114.8,23.4 115.7,24 115.8,25 L115.8,25.1 C115.5,24.9 114.7,24.6 113.9,24.6 C112.1,24.6 110.3,25.6 110.3,27.4 C110.3,29.1 111.8,30.2 113.4,30.2 C114.7,30.2 115.3,29.6 115.8,29 L115.9,29 L115.9,30 L117.7,30 L117.7,25.2 C117.5,23 115.8,21.7 113.7,21.7 L113.7,21.7 Z M113.5,28.6 C112.9,28.6 112,28.3 112,27.5 C112,26.5 113.1,26.2 114,26.2 C114.8,26.2 115.2,26.4 115.7,26.6 C115.5,27.8 114.5,28.6 113.5,28.6 L113.5,28.6 Z M124,22 L121.9,27.4 L121.8,27.4 L119.6,22 L117.6,22 L120.9,29.6 L119,33.8 L120.9,33.8 L126,22 L124,22 L124,22 Z M107.2,30 L109.1,30 L109.1,17.5 L107.2,17.5 L107.2,30 L107.2,30 Z" id="Shape" fill="#FFFFFF"></path>
                    <g transform="translate(10.000000, 7.000000)" id="Shape">
                        <path d="M0.7,0.5 C0.4,0.8 0.2,1.3 0.2,1.9 L0.2,24 C0.2,24.6 0.4,25.1 0.7,25.4 L0.8,25.5 L13.2,13.1 L13.2,13 L13.2,12.9 L0.7,0.5 L0.7,0.5 L0.7,0.5 Z" fill="url(#linearGradient-1)"></path>
                        <path d="M17.3,17.3 L13.2,13.2 L13.2,13 L13.2,12.9 L17.3,8.8 L17.4,8.9 L22.3,11.7 C23.7,12.5 23.7,13.8 22.3,14.6 L17.3,17.3 L17.3,17.3 L17.3,17.3 Z" fill="url(#linearGradient-2)"></path>
                        <path d="M17.4,17.2 L13.2,13 L0.7,25.5 C1.2,26 1.9,26 2.8,25.6 L17.4,17.2" fill="url(#linearGradient-3)"></path>
                        <path d="M17.4,8.8 L2.8,0.5 C1.9,-1.77635684e-15 1.2,0.1 0.7,0.6 L13.2,13 L17.4,8.8 L17.4,8.8 Z" fill="url(#linearGradient-4)"></path>
                        <g transform="translate(0.000000, 17.000000)" fill="#000000">
                            <path d="M17.3,0.1 L2.8,8.3 C2,8.8 1.3,8.7 0.8,8.3 L0.8,8.3 L0.7,8.4 L0.7,8.4 L0.8,8.5 L0.8,8.5 C1.3,8.9 2,9 2.8,8.5 L17.3,0.1 L17.3,0.1 L17.3,0.1 Z" opacity="0.2"></path>
                            <path d="M0.7,8.3 C0.4,8 0.2,7.5 0.2,6.9 L0.2,7 C0.2,7.6 0.4,8.1 0.7,8.4 L0.7,8.3 L0.7,8.3 L0.7,8.3 Z" opacity="0.12"></path>
                        </g>
                        <path d="M22.3,14.3 L17.3,17.1 L17.4,17.2 L22.3,14.4 C23,14 23.3,13.5 23.3,13 L23.3,13 C23.3,13.5 22.9,13.9 22.3,14.3 L22.3,14.3 Z" fill="#000000" opacity="0.12"></path>
                        <path d="M2.8,0.6 L22.3,11.7 C22.9,12.1 23.3,12.5 23.3,13 L23.3,13 C23.3,12.5 23,12 22.3,11.6 L2.8,0.5 C1.4,-0.3 0.3,0.4 0.3,2 L0.3,2.1 C0.3,0.5 1.4,-0.2 2.8,0.6 L2.8,0.6 Z" fill="#FFFFFF" opacity="0.25"></path>
                    </g>
                </g>
            </g>
        </g>
    </g>
</svg>