<svg xmlns="http://www.w3.org/2000/svg" width="28" height="28" viewBox="0 0 28 28">
    <g fill="none" fill-rule="evenodd" opacity=".5">
        <path d="M0 0h28v28H0z"/>
        <circle cx="14" cy="14" r="14" fill="#090909"/>
        <path fill="#FFF" d="M14 8.261c1.87 0 2.09.007 2.829.041.682.031 1.053.145 1.3.241.326.127.56.279.804.524.245.245.397.478.524.805.096.246.21.617.24 1.3.035.738.042.959.042 2.828 0 1.87-.007 2.09-.041 2.829-.031.682-.145 1.053-.241 1.3-.127.326-.279.56-.524.804a2.169 2.169 0 0 1-.805.524c-.246.096-.617.21-1.3.241-.737.034-.959.04-2.828.04-1.87 0-2.09-.006-2.829-.04-.682-.031-1.053-.145-1.3-.241a2.169 2.169 0 0 1-.804-.524 2.169 2.169 0 0 1-.524-.805c-.096-.246-.21-.617-.241-1.3-.034-.738-.04-.959-.04-2.828 0-1.87.006-2.09.04-2.829.031-.682.145-1.053.241-1.3.127-.326.279-.56.524-.804.245-.245.478-.397.805-.524.246-.096.617-.21 1.3-.24.738-.035.959-.042 2.828-.042m.885-1.26c1.12.003 1.39.013 2.001.041.745.034 1.254.152 1.7.326.46.178.85.418 1.24.807.388.389.628.78.806 1.24.174.445.292.954.326 1.699.034.747.042.985.042 2.886 0 1.901-.008 2.14-.042 2.886-.034.745-.152 1.254-.326 1.7-.178.46-.418.85-.807 1.24-.389.388-.78.628-1.24.807-.445.173-.954.29-1.699.325-.747.034-.985.042-2.886.042-1.901 0-2.14-.008-2.886-.042-.745-.034-1.254-.152-1.7-.325a3.431 3.431 0 0 1-1.24-.808c-.388-.389-.628-.78-.807-1.24-.173-.445-.29-.954-.325-1.699-.028-.61-.038-.881-.041-2v-1.771c.003-1.12.013-1.39.041-2.001.034-.745.152-1.254.325-1.7.18-.46.419-.85.808-1.24.389-.388.78-.628 1.24-.806.445-.174.954-.292 1.699-.326.61-.028.881-.038 2-.041zm-.871 3.416a3.597 3.597 0 1 0 0 7.194 3.597 3.597 0 0 0 0-7.194zm0 1.262a2.335 2.335 0 1 1 0 4.67 2.335 2.335 0 0 1 0-4.67zm3.708-2.262a.833.833 0 1 0 0 1.666.833.833 0 0 0 0-1.666z"/>
    </g>
</svg>
