<svg xmlns="http://www.w3.org/2000/svg" width="28" height="28" viewBox="0 0 28 28">
    <g fill="none" fill-rule="evenodd" opacity=".5">
        <path d="M0 0h28v28H0z"/>
        <circle cx="14" cy="14" r="14" fill="#090909"/>
        <path fill="#FFF" d="M7.636 12.937c0 1.635.616 3.089 1.935 3.63.216.09.41.004.472-.237.044-.167.147-.588.193-.763.063-.238.039-.322-.136-.53-.38-.451-.623-1.036-.623-1.864 0-2.401 1.785-4.551 4.65-4.551 2.535 0 3.928 1.56 3.928 3.642 0 2.74-1.205 5.053-2.993 5.053-.989 0-1.728-.822-1.49-1.83.283-1.205.832-2.504.832-3.373 0-.778-.415-1.427-1.273-1.427-1.01 0-1.821 1.051-1.821 2.46 0 .897.301 1.503.301 1.503l-1.214 5.18c-.361 1.537-.054 3.42-.029 3.61.016.113.16.14.225.056.093-.123 1.295-1.618 1.705-3.11.115-.423.664-2.613.664-2.613.328.63 1.287 1.185 2.306 1.185 3.036 0 5.096-2.786 5.096-6.514C20.364 9.625 17.99 7 14.385 7 9.9 7 7.636 10.237 7.636 12.937z"/>
    </g>
</svg>
